<svg width="147" height="29" viewBox="0 0 147 29" fill="none" xmlns="http://www.w3.org/2000/svg">
<path d="M11.8482 19.036V14.428H29.2362V15.004C29.2362 22.6 22.5762 28.54 15.1242 28.54C7.49222 28.54 0.796219 22.672 0.796219 14.68C0.796219 6.832 7.45622 0.819998 14.9802 0.819998C21.6762 0.819998 26.5362 5.356 27.9042 9.172H22.0002C20.8482 7.408 18.4002 5.428 14.8722 5.428C8.86022 5.428 5.72822 10.54 5.72822 14.716C5.72822 18.784 8.78822 23.932 15.1242 23.932C18.4002 23.932 21.4602 22.132 23.0082 19.036H11.8482ZM32.0026 28V1.36H36.7906V28H32.0026ZM40.615 28V8.02H45.403V28H40.615ZM40.615 5.752V1.36H45.403V5.752H40.615ZM69.6035 1.36V28H65.2115V25.552H65.1395C64.2395 26.992 62.1515 28.648 58.7675 28.648C53.6915 28.648 48.5795 24.472 48.5795 18.028C48.5795 11.296 53.9795 7.336 58.7675 7.336C61.6835 7.336 63.4115 8.308 64.8155 9.784V1.36H69.6035ZM53.3675 17.848C53.3675 21.556 56.1395 24.256 59.2715 24.256C62.8715 24.256 65.1755 21.016 65.1755 17.992C65.1755 14.716 62.6555 11.728 59.2715 11.728C55.7075 11.728 53.3675 15.04 53.3675 17.848ZM73.3891 28V8.02H77.7811V9.784H77.8531C78.7531 8.488 79.6531 7.336 82.1371 7.336H82.5331V11.98C78.1771 12.16 78.1771 15.58 78.1771 16.768V28H73.3891ZM101.022 28V5.896H97.6742V1.36H105.81V28H101.022ZM131.931 9.784V19.612C131.931 25.408 127.683 28.54 123.003 28.54C120.339 28.54 118.323 27.712 116.235 25.624C114.795 24.184 114.039 22.348 114.039 19.36V9.784C114.039 3.484 118.827 0.819998 123.147 0.819998C127.215 0.819998 131.931 3.736 131.931 9.784ZM127.143 19.18V9.82C127.143 7.192 125.271 5.356 123.039 5.356C120.735 5.356 118.827 6.976 118.827 10V19.072C118.827 23.14 121.419 24.004 123.003 24.004C124.371 24.004 127.143 23.356 127.143 19.18ZM141.311 28V5.896H137.963V1.36H146.099V28H141.311Z" fill="url(#paint0_linear_15_349)"/>
<defs>
<linearGradient id="paint0_linear_15_349" x1="-3.07e-08" y1="18" x2="146.5" y2="18" gradientUnits="userSpaceOnUse">
<stop stop-color="#C3AE73"/>
<stop offset="1" stop-color="#796E4E"/>
</linearGradient>
</defs>
</svg>
