<svg width="21" height="20" viewBox="0 0 21 20" fill="none" xmlns="http://www.w3.org/2000/svg">
<mask id="mask0_15_437" style="mask-type:alpha" maskUnits="userSpaceOnUse" x="0" y="0" width="21" height="20">
<rect x="0.5" width="20" height="20" fill="#D9D9D9"/>
</mask>
<g mask="url(#mask0_15_437)">
<path d="M8.83333 17.5C7.91667 17.5 7.13194 17.1736 6.47917 16.5208C5.82639 15.8681 5.5 15.0833 5.5 14.1667C5.5 13.25 5.82639 12.4653 6.47917 11.8125C7.13194 11.1597 7.91667 10.8333 8.83333 10.8333C9.15278 10.8333 9.44792 10.8715 9.71875 10.9479C9.98958 11.0243 10.25 11.1389 10.5 11.2917V2.5H15.5V5.83333H12.1667V14.1667C12.1667 15.0833 11.8403 15.8681 11.1875 16.5208C10.5347 17.1736 9.75 17.5 8.83333 17.5Z" fill="url(#paint0_linear_15_437)"/>
</g>
<defs>
<linearGradient id="paint0_linear_15_437" x1="10.5" y1="2.5" x2="10.5" y2="17.5" gradientUnits="userSpaceOnUse">
<stop stop-color="#F262FF"/>
<stop offset="1" stop-color="#B93AC4"/>
</linearGradient>
</defs>
</svg>
