<svg width="530" height="160" viewBox="0 0 530 160" fill="none" xmlns="http://www.w3.org/2000/svg">
<g filter="url(#filter0_d_15_289)">
<path d="M98.9414 119.989C95.4872 121.446 91.8347 122.488 88.0654 123.055H74.6982C70.8465 122.49 67.1235 121.449 63.6094 119.989H98.9414ZM232.967 119.989C230.989 121.272 228.611 122.357 225.823 123.055H211.808C209.06 122.4 206.382 121.367 203.861 119.989H232.967ZM435.382 119.989C432.671 121.47 429.69 122.497 426.567 123.055H415.081C412.121 122.517 409.392 121.522 406.753 119.989H435.382ZM149.65 121.851H134.584V119.989H149.65V121.851ZM176.751 121.851H161.685V119.989H176.751V121.851ZM252.903 121.851H239.083V119.989H252.903V121.851ZM279.882 121.851H264.815V119.989H279.882V121.851ZM366.835 121.851H351.769V119.989H366.835V121.851ZM493.613 121.851H478.547V119.989H493.613V121.851ZM106.479 115.949C104.778 117.076 102.999 118.094 101.153 118.989H61.3662C59.5014 118.095 57.7055 117.078 55.9893 115.949H106.479ZM149.65 118.989H134.584V115.949H149.65V118.989ZM176.751 118.989H161.685V115.949H176.751V118.989ZM237.548 115.949C236.685 116.99 235.629 118.026 234.377 118.989H202.156C200.723 118.09 199.352 117.074 198.059 115.949H237.548ZM252.903 118.989H239.083V115.949H252.903V118.989ZM279.882 118.989H264.815V115.949H279.882V118.989ZM366.835 118.989H351.769V115.949H366.835V118.989ZM440.923 115.949C439.734 117.088 438.441 118.102 437.065 118.989H405.153C403.858 118.117 402.578 117.106 401.297 115.949H440.923ZM493.613 118.989H478.547V115.949H493.613V118.989ZM111.719 111.903C110.512 112.985 109.244 114 107.925 114.949H54.5312C53.2061 114.002 51.9333 112.986 50.7217 111.903H111.719ZM149.65 114.949H134.584V111.903H149.65V114.949ZM176.751 114.949H161.685V111.903H176.751V114.949ZM252.903 114.949H239.083V114.147H238.856C238.69 114.413 238.51 114.68 238.318 114.949H196.961C195.966 114.001 195.024 112.985 194.145 111.903H252.903V114.949ZM279.882 114.949H264.815V111.903H279.882V114.949ZM366.835 114.949H351.769V111.903H366.835V114.949ZM444.338 111.903C443.6 112.992 442.79 114.009 441.912 114.949H400.224C400.029 114.761 399.834 114.569 399.639 114.374C398.857 113.592 398.141 112.772 397.488 111.903H444.338ZM493.613 114.949H478.547V111.903H493.613V114.949ZM54.4004 91.6738C58.429 100.946 67.3722 109.05 81.4727 109.05C91.7811 109.05 101.41 103.386 106.281 93.6436H71.1641V91.6738H124.428C122.377 99.0914 118.262 105.673 112.795 110.903H49.6426C44.2154 105.72 40.1161 99.1689 37.998 91.6738H54.4004ZM149.65 110.903H134.584V91.6738H149.65V110.903ZM176.751 110.903H161.685V91.6738H176.751V110.903ZM201.882 91.6738C202.712 102.422 211.041 110.069 220.392 110.069C231.199 110.069 238.294 100.79 238.924 91.6738H252.903V110.903H193.365C189.498 105.745 187.008 99.2282 186.769 91.6738H201.882ZM279.882 110.903H264.815V91.6738H279.882V110.903ZM366.835 110.903H351.769V91.6738H366.835V110.903ZM407.795 93.7568C407.795 106.557 415.951 109.276 420.936 109.276C425.24 109.276 433.963 107.237 433.963 94.0967V91.6738H449.029V95.4561C449.029 101.564 447.528 106.731 444.98 110.903H396.78C394.114 106.894 392.729 101.833 392.729 94.6631V91.6738H407.795V93.7568ZM493.613 110.903H478.547V91.6738H493.613V110.903ZM52.9688 87.6289C53.2513 88.6488 53.5901 89.6667 53.9863 90.6738H37.7285C37.4725 89.6745 37.2509 88.6594 37.0664 87.6289H52.9688ZM125.324 87.6289C125.152 88.6576 124.94 89.6729 124.69 90.6738H71.1641V87.6289H125.324ZM149.65 90.6738H134.584V87.6289H149.65V90.6738ZM176.751 90.6738H161.685V87.6289H176.751V90.6738ZM201.971 87.6289C201.867 88.3941 201.813 89.1556 201.813 89.9053C201.813 90.163 201.819 90.4192 201.827 90.6738H186.75C186.75 90.6065 186.747 90.5391 186.747 90.4717C186.747 89.506 186.783 88.558 186.852 87.6289H201.971ZM252.903 90.6738H238.966C238.968 90.5686 238.97 90.4635 238.97 90.3584C238.97 89.4395 238.906 88.5274 238.783 87.6289H252.903V90.6738ZM279.882 90.6738H264.815V87.6289H279.882V90.6738ZM366.835 90.6738H351.769V87.6289H366.835V90.6738ZM407.795 90.6738H392.729V87.6289H407.795V90.6738ZM449.029 90.6738H433.963V87.6289H449.029V90.6738ZM493.613 90.6738H478.547V87.6289H493.613V90.6738ZM52.1426 83.583C52.2753 84.5918 52.4647 85.6098 52.71 86.6289H36.8984C36.7435 85.627 36.6221 84.6115 36.5371 83.583H52.1426ZM125.793 83.583C125.726 84.6097 125.62 85.6252 125.478 86.6289H71.1641V83.583H125.793ZM149.65 86.6289H134.584V83.583H149.65V86.6289ZM176.751 86.6289H161.685V83.583H176.751V86.6289ZM202.982 83.583C202.615 84.5884 202.331 85.6095 202.135 86.6289H186.939C187.045 85.5893 187.194 84.5741 187.382 83.583H202.982ZM252.903 86.6289H238.622C238.428 85.5891 238.153 84.5707 237.806 83.583H252.903V86.6289ZM279.991 83.583C279.884 84.7444 279.882 85.7635 279.882 86.5059V86.6289H264.815V83.583H279.991ZM366.835 86.6289H351.769V83.583H366.835V86.6289ZM407.795 86.6289H392.729V83.583H407.795V86.6289ZM449.029 86.6289H433.963V83.583H449.029V86.6289ZM493.613 86.6289H478.547V83.583H493.613V86.6289ZM51.9062 80.0488C51.9062 80.8809 51.9477 81.7276 52.0293 82.583H36.4658C36.4137 81.7094 36.3867 80.8265 36.3867 79.9355C36.3867 79.8026 36.3884 79.6698 36.3896 79.5371H51.9121C51.9088 79.7082 51.9063 79.8787 51.9062 80.0488ZM125.879 80.9551C125.879 81.5003 125.868 82.0433 125.847 82.583H71.1641V79.5371H125.879V80.9551ZM149.65 82.583H134.584V79.5371H149.65V82.583ZM176.751 82.583H161.685V79.5371H176.751V82.583ZM204.977 79.5371C204.357 80.5153 203.823 81.5374 203.378 82.583H187.586C187.815 81.5393 188.087 80.5235 188.402 79.5371H204.977ZM252.903 82.583H237.425C236.989 81.5222 236.466 80.5026 235.865 79.5371H252.903V82.583ZM280.833 79.5371C280.47 80.5734 280.245 81.6108 280.106 82.583H264.815V79.5371H280.833ZM366.835 82.583H351.769V79.5371H366.835V82.583ZM407.795 82.583H392.729V79.5371H407.795V82.583ZM449.029 82.583H433.963V79.5371H449.029V82.583ZM493.613 82.583H478.547V79.5371H493.613V82.583ZM52.2871 75.4912C52.1193 76.5138 52.0067 77.5316 51.9502 78.5371H36.4102C36.4432 77.5108 36.513 76.4953 36.6172 75.4912H52.2871ZM149.65 78.5371H134.584V75.4912H149.65V78.5371ZM176.751 78.5371H161.685V75.4912H176.751V78.5371ZM208.322 75.4912C207.328 76.418 206.435 77.4435 205.651 78.5371H188.741C189.114 77.4872 189.533 76.4715 189.997 75.4912H208.322ZM252.903 78.5371H235.2C234.417 77.4307 233.525 76.4083 232.539 75.4912H252.903V78.5371ZM283.21 75.4912C282.344 76.4331 281.703 77.4729 281.229 78.5371H264.815V75.4912H283.21ZM366.835 78.5371H351.769V75.4912H366.835V78.5371ZM407.795 78.5371H392.729V75.4912H407.795V78.5371ZM449.029 78.5371H433.963V75.4912H449.029V78.5371ZM493.613 78.5371H478.547V75.4912H493.613V78.5371ZM53.2383 71.4453C52.9274 72.4572 52.67 73.475 52.4678 74.4912H36.7344C36.8658 73.4628 37.0339 72.4473 37.2373 71.4453H53.2383ZM149.65 74.4912H134.584V71.4453H149.65V74.4912ZM176.751 74.4912H161.685V71.4453H176.751V74.4912ZM215.173 71.4453C213.061 72.1123 211.154 73.1666 209.484 74.4912H190.493C191.04 73.4318 191.637 72.4163 192.281 71.4453H215.173ZM252.903 74.4912H231.373C229.674 73.1508 227.744 72.1054 225.638 71.4453H252.903V74.4912ZM293.48 71.4453C289.206 71.6398 286.276 72.8322 284.267 74.4912H264.815V71.4453H293.48ZM366.835 74.4912H351.769V71.4453H366.835V74.4912ZM407.795 74.4912H392.729V71.4453H407.795V74.4912ZM449.029 74.4912H433.963V71.4453H449.029V74.4912ZM493.613 74.4912H478.547V71.4453H493.613V74.4912ZM54.793 67.3994C54.3271 68.4 53.9171 69.418 53.5635 70.4453H37.4531C37.6887 69.4143 37.9617 68.3988 38.2705 67.3994H54.793ZM149.65 70.4453H134.584V67.3994H149.65V70.4453ZM176.751 70.4453H161.685V67.3994H176.751V70.4453ZM252.903 70.4453H192.97C193.742 69.3707 194.571 68.3544 195.449 67.3994H252.903V70.4453ZM293.589 70.4453H264.815V67.3994H293.589V70.4453ZM366.835 70.4453H351.769V67.3994H366.835V70.4453ZM407.795 70.4453H392.729V67.3994H407.795V70.4453ZM449.029 70.4453H433.963V67.3994H449.029V70.4453ZM493.613 70.4453H478.547V67.3994H493.613V70.4453ZM57.0566 63.3535C56.4026 64.3394 55.8108 65.3582 55.2803 66.3994H38.5928C38.9409 65.3651 39.3284 64.3497 39.752 63.3535H57.0566ZM149.65 66.3994H134.584V63.3535H149.65V66.3994ZM176.751 66.3994H161.685V63.3535H176.751V66.3994ZM236.656 63.3535C237.058 63.7331 237.452 64.1247 237.837 64.5293V63.3535H252.903V66.3994H196.412C197.52 65.2928 198.696 64.2765 199.925 63.3535H236.656ZM278.636 64.5293H278.862C279.139 64.1315 279.417 63.7398 279.698 63.3535H293.589V66.3994H264.815V63.3535H278.636V64.5293ZM366.835 66.3994H351.769V63.3535H366.835V66.3994ZM407.876 63.3535C407.823 63.952 407.795 64.5705 407.795 65.209V66.3994H392.729V64.5293C392.729 64.1328 392.736 63.7409 392.748 63.3535H407.876ZM449.008 63.3535C449.021 63.7412 449.029 64.1331 449.029 64.5293V66.3994H433.963V64.6426C433.963 64.2057 433.945 63.776 433.913 63.3535H449.008ZM493.613 66.3994H478.547V63.3535H493.613V66.3994ZM60.2842 59.3076C59.3651 60.2701 58.5205 61.2897 57.751 62.3535H40.1924C40.6659 61.315 41.1796 60.2993 41.7314 59.3076H60.2842ZM120.255 59.3076C120.776 60.3315 121.223 61.3499 121.595 62.3535H102.94C102.261 61.3435 101.448 60.3143 100.505 59.3076H120.255ZM149.65 62.3535H134.584V59.3076H149.65V62.3535ZM176.751 62.3535H161.685V59.3076H176.751V62.3535ZM230.899 59.3076C232.613 60.1456 234.136 61.1723 235.536 62.3535H201.328C203.123 61.1453 205.013 60.1282 206.954 59.3076H230.899ZM252.903 62.3535H237.837V59.3076H252.903V62.3535ZM278.636 62.3535H264.815V59.3076H278.636V62.3535ZM293.589 62.3535H280.451C281.346 61.2177 282.323 60.1748 283.514 59.3076H293.589V62.3535ZM366.835 62.3535H351.769V59.3076H366.835V62.3535ZM408.705 59.3076C408.384 60.2498 408.143 61.2656 407.989 62.3535H392.793C392.854 61.3037 392.958 60.2886 393.104 59.3076H408.705ZM448.631 59.3076C448.786 60.2907 448.895 61.3059 448.96 62.3535H433.807C433.658 61.2819 433.406 60.2638 433.062 59.3076H448.631ZM493.613 62.3535H478.547V59.3076H493.613V62.3535ZM65.1416 55.2627C63.7487 56.1709 62.4642 57.1939 61.2881 58.3076H42.3047C42.9226 57.2641 43.5807 56.2475 44.2812 55.2627H65.1416ZM117.829 55.2627C118.53 56.2736 119.162 57.2919 119.724 58.3076H99.5166C98.3945 57.2315 97.1192 56.1997 95.6973 55.2627H117.829ZM149.65 58.3076H134.584V55.2627H149.65V58.3076ZM218.806 56.8262C222.619 56.8262 225.786 57.3568 228.503 58.3076H209.642C212.672 57.3312 215.778 56.8262 218.806 56.8262ZM252.903 58.3076H237.837V55.2627H252.903V58.3076ZM293.589 58.3076H285.151C286.983 57.3852 289.28 56.8262 292.343 56.8262H293.589V58.3076ZM366.835 58.3076H351.769V55.2627H366.835V58.3076ZM410.885 55.2627C410.176 56.1543 409.57 57.1702 409.087 58.3076H393.271C393.463 57.2515 393.706 56.2368 393.993 55.2627H410.885ZM447.7 55.2627C448 56.2391 448.252 57.254 448.454 58.3076H432.66C432.161 57.1892 431.531 56.1687 430.794 55.2627H447.7ZM493.613 58.3076H478.547V55.2627H493.613V58.3076ZM75.6953 51.2168C72.3953 51.7517 69.4302 52.8112 66.8047 54.2627H45.0166C45.8114 53.2098 46.6517 52.1931 47.5361 51.2168H75.6953ZM114.618 51.2168C115.517 52.2145 116.349 53.2337 117.111 54.2627H94.0596C91.5596 52.8601 88.6719 51.7675 85.4189 51.2168H114.618ZM149.65 54.2627H134.584V51.2168H149.65V54.2627ZM252.903 54.2627H237.837V51.2168H252.903V54.2627ZM366.835 54.2627H351.769V52.2949H341.233V51.2168H366.835V54.2627ZM416.842 51.2168C414.923 51.8125 413.195 52.8334 411.774 54.2627H394.312C394.671 53.1965 395.085 52.1813 395.551 51.2168H416.842ZM446.094 51.2168C446.573 52.1843 447.002 53.1991 447.373 54.2627H429.89C428.492 52.8684 426.806 51.8268 424.948 51.2168H446.094ZM493.613 54.2627H478.547V52.2949H468.012V51.2168H493.613V54.2627ZM176.751 51.8418H161.685V51.2168H176.751V51.8418ZM110.449 47.1709C111.6 48.1512 112.68 49.1701 113.686 50.2168H48.4717C49.5007 49.1486 50.5832 48.1327 51.7129 47.1709H110.449ZM149.65 50.2168H134.584V47.1709H149.65V50.2168ZM176.751 50.2168H161.685V47.1709H176.751V50.2168ZM252.903 50.2168H237.837V47.1709H252.903V50.2168ZM366.835 50.2168H341.233V47.1709H366.835V50.2168ZM443.605 47.1709C444.321 48.1225 444.979 49.1378 445.573 50.2168H396.062C396.646 49.1342 397.296 48.1194 398.004 47.1709H443.605ZM493.613 50.2168H468.012V47.1709H493.613V50.2168ZM104.906 43.125C106.434 44.0728 107.878 45.0948 109.233 46.1709H52.9268C54.3096 45.0739 55.7573 44.0565 57.2617 43.125H104.906ZM149.65 46.1709H134.584V43.125H149.65V46.1709ZM176.751 46.1709H161.685V43.125H176.751V46.1709ZM252.903 46.1709H237.837V43.125H252.903V46.1709ZM366.835 46.1709H341.233V43.125H366.835V46.1709ZM439.817 43.125C440.884 44.0461 441.891 45.0598 442.815 46.1709H398.792C399.718 45.056 400.728 44.0416 401.806 43.125H439.817ZM493.613 46.1709H468.012V43.125H493.613V46.1709ZM96.6094 39.0791C98.9398 39.9346 101.144 40.9628 103.211 42.125H58.9609C61.0739 40.9395 63.286 39.919 65.5762 39.0791H96.6094ZM149.65 42.125H134.584V39.0791H149.65V42.125ZM176.751 42.125H161.685V39.0791H176.751V42.125ZM252.903 42.125H237.837V39.0791H252.903V42.125ZM366.835 42.125H341.233V39.0791H366.835V42.125ZM433.571 39.0791C435.325 39.9061 437.013 40.921 438.588 42.125H403.057C404.677 40.9126 406.424 39.9013 408.251 39.0791H433.571ZM493.613 42.125H468.012V39.0791H493.613V42.125ZM81.0195 36.3223C85.4703 36.3223 89.6627 36.9612 93.5488 38.0791H68.6367C72.6066 36.9356 76.7688 36.3223 81.0195 36.3223ZM149.65 38.0791H134.584V38.0215H149.65V38.0791ZM176.751 38.0791H161.685V38.0215H176.751V38.0791ZM252.903 38.0791H237.837V38.0215H252.903V38.0791ZM366.835 38.0791H341.233V38.0215H366.835V38.0791ZM421.389 36.3223C424.611 36.3223 427.963 36.9051 431.175 38.0791H410.775C414.219 36.8914 417.853 36.3223 421.389 36.3223ZM493.613 38.0791H468.012V38.0215H493.613V38.0791Z" fill="#F262FF"/>
</g>
<defs>
<filter id="filter0_d_15_289" x="0.386719" y="0.322266" width="529.227" height="158.732" filterUnits="userSpaceOnUse" color-interpolation-filters="sRGB">
<feFlood flood-opacity="0" result="BackgroundImageFix"/>
<feColorMatrix in="SourceAlpha" type="matrix" values="0 0 0 0 0 0 0 0 0 0 0 0 0 0 0 0 0 0 127 0" result="hardAlpha"/>
<feOffset/>
<feGaussianBlur stdDeviation="18"/>
<feComposite in2="hardAlpha" operator="out"/>
<feColorMatrix type="matrix" values="0 0 0 0 1 0 0 0 0 0.364706 0 0 0 0 0.807843 0 0 0 0.5 0"/>
<feBlend mode="normal" in2="BackgroundImageFix" result="effect1_dropShadow_15_289"/>
<feBlend mode="normal" in="SourceGraphic" in2="effect1_dropShadow_15_289" result="shape"/>
</filter>
</defs>
</svg>
