<svg width="21" height="20" viewBox="0 0 21 20" fill="none" xmlns="http://www.w3.org/2000/svg">
<mask id="mask0_15_439" style="mask-type:alpha" maskUnits="userSpaceOnUse" x="0" y="0" width="21" height="20">
<rect x="0.5" width="20" height="20" fill="#D9D9D9"/>
</mask>
<g mask="url(#mask0_15_439)">
<path d="M16.125 7.20801C15.75 7.58301 15.3194 7.86773 14.8333 8.06217C14.3472 8.25662 13.8611 8.35384 13.375 8.35384C12.8889 8.35384 12.4097 8.26009 11.9375 8.07259C11.4653 7.88509 11.0417 7.5969 10.6667 7.20801L9.10417 5.64551C8.89583 5.43717 8.65972 5.28092 8.39583 5.17676C8.13194 5.07259 7.86111 5.02051 7.58333 5.02051C7.30556 5.02051 7.03472 5.07259 6.77083 5.17676C6.50694 5.28092 6.27083 5.43717 6.0625 5.64551L4.5 7.20801L3.3125 6.02051L4.875 4.45801C5.25 4.08301 5.67361 3.80176 6.14583 3.61426C6.61806 3.42676 7.09722 3.33301 7.58333 3.33301C8.06944 3.33301 8.54514 3.42676 9.01042 3.61426C9.47569 3.80176 9.89583 4.08301 10.2708 4.45801L11.8333 6.02051C12.0556 6.24273 12.2986 6.40592 12.5625 6.51009C12.8264 6.61426 13.0972 6.66634 13.375 6.66634C13.6528 6.66634 13.9271 6.61426 14.1979 6.51009C14.4687 6.40592 14.7153 6.24273 14.9375 6.02051L16.5 4.45801L17.6875 5.64551L16.125 7.20801ZM16.125 11.3747C15.75 11.7497 15.3229 12.0309 14.8438 12.2184C14.3646 12.4059 13.8819 12.4997 13.3958 12.4997C12.9097 12.4997 12.4271 12.4059 11.9479 12.2184C11.4687 12.0309 11.0417 11.7497 10.6667 11.3747L9.10417 9.81217C8.89583 9.60384 8.65972 9.44759 8.39583 9.34342C8.13194 9.23926 7.86111 9.18717 7.58333 9.18717C7.30556 9.18717 7.03472 9.23926 6.77083 9.34342C6.50694 9.44759 6.27083 9.60384 6.0625 9.81217L4.5 11.3747L3.3125 10.208L4.875 8.62467C5.25 8.24967 5.67361 7.96842 6.14583 7.78092C6.61806 7.59342 7.09722 7.49967 7.58333 7.49967C8.06944 7.49967 8.54514 7.59342 9.01042 7.78092C9.47569 7.96842 9.89583 8.24967 10.2708 8.62467L11.8333 10.1872C12.0556 10.4094 12.2986 10.5726 12.5625 10.6768C12.8264 10.7809 13.0972 10.833 13.375 10.833C13.6528 10.833 13.9271 10.7809 14.1979 10.6768C14.4687 10.5726 14.7153 10.4094 14.9375 10.1872L16.5 8.62467L17.6875 9.81217L16.125 11.3747ZM16.1042 15.5413C15.7292 15.9163 15.3056 16.1976 14.8333 16.3851C14.3611 16.5726 13.8819 16.6663 13.3958 16.6663C12.9097 16.6663 12.4271 16.5726 11.9479 16.3851C11.4687 16.1976 11.0417 15.9163 10.6667 15.5413L9.08333 13.9788C8.875 13.7705 8.63889 13.6143 8.375 13.5101C8.11111 13.4059 7.84028 13.3538 7.5625 13.3538C7.28472 13.3538 7.01389 13.4059 6.75 13.5101C6.48611 13.6143 6.25 13.7705 6.04167 13.9788L4.47917 15.5413L3.3125 14.3747L4.875 12.7913C5.25 12.4163 5.67361 12.1351 6.14583 11.9476C6.61806 11.7601 7.09722 11.6663 7.58333 11.6663C8.06944 11.6663 8.54514 11.7601 9.01042 11.9476C9.47569 12.1351 9.89583 12.4163 10.2708 12.7913L11.8333 14.3538C12.0556 14.5761 12.3021 14.7393 12.5729 14.8434C12.8437 14.9476 13.1181 14.9997 13.3958 14.9997C13.6736 14.9997 13.9444 14.9476 14.2083 14.8434C14.4722 14.7393 14.7153 14.5761 14.9375 14.3538L16.5 12.7913L17.6667 13.9788L16.1042 15.5413Z" fill="url(#paint0_linear_15_439)"/>
</g>
<defs>
<linearGradient id="paint0_linear_15_439" x1="10.5" y1="3.33301" x2="10.5" y2="16.6663" gradientUnits="userSpaceOnUse">
<stop stop-color="#1FD8C8"/>
<stop offset="1" stop-color="#139186"/>
</linearGradient>
</defs>
</svg>
